<mxfile host="app.diagrams.net" modified="2023-02-03T03:03:29.360Z" agent="5.0 (Windows NT 10.0; Win64; x64) AppleWebKit/537.36 (KHTML, like Gecko) Chrome/108.0.0.0 Safari/537.36" etag="hN2Blku5aL6MU2CcUlPf" version="20.8.15" type="github">
  <diagram name="第 1 页" id="E0Y89fpYA1pzLDNYQE2T">
    <mxGraphModel dx="1434" dy="802" grid="1" gridSize="10" guides="1" tooltips="1" connect="1" arrows="1" fold="1" page="1" pageScale="1" pageWidth="1654" pageHeight="2336" math="0" shadow="0">
      <root>
        <mxCell id="0" />
        <mxCell id="1" parent="0" />
        <mxCell id="v3RKET7zcKDwwfgUAr_f-2" value="Sync" style="whiteSpace=wrap;html=1;dashed=1;" parent="1" vertex="1">
          <mxGeometry x="260" y="399" width="701.89" height="161" as="geometry" />
        </mxCell>
        <mxCell id="v3RKET7zcKDwwfgUAr_f-4" value="" style="edgeStyle=orthogonalEdgeStyle;rounded=0;orthogonalLoop=1;jettySize=auto;html=1;" parent="1" source="v3RKET7zcKDwwfgUAr_f-5" target="v3RKET7zcKDwwfgUAr_f-7" edge="1">
          <mxGeometry relative="1" as="geometry" />
        </mxCell>
        <mxCell id="v3RKET7zcKDwwfgUAr_f-5" value="Master" style="aspect=fixed;html=1;points=[];align=center;image;fontSize=12;image=img/lib/azure2/compute/Virtual_Machine.svg;" parent="1" vertex="1">
          <mxGeometry x="530" y="445" width="58.22" height="54" as="geometry" />
        </mxCell>
        <mxCell id="v3RKET7zcKDwwfgUAr_f-7" value="Slave" style="aspect=fixed;html=1;points=[];align=center;image;fontSize=12;image=img/lib/azure2/compute/Virtual_Machine.svg;" parent="1" vertex="1">
          <mxGeometry x="649.9999999999999" y="445" width="58.22" height="54" as="geometry" />
        </mxCell>
        <mxCell id="v3RKET7zcKDwwfgUAr_f-8" value="Subnet 192.168.132.0/27" style="text;strokeColor=none;align=center;fillColor=none;html=1;verticalAlign=middle;whiteSpace=wrap;rounded=0;" parent="1" vertex="1">
          <mxGeometry x="290" y="499" width="60" height="30" as="geometry" />
        </mxCell>
      </root>
    </mxGraphModel>
  </diagram>
</mxfile>
